<?xml version="1.0" standalone="no"?>
<!DOCTYPE svg PUBLIC "-//W3C//DTD SVG 20010904//EN"
 "http://www.w3.org/TR/2001/REC-SVG-20010904/DTD/svg10.dtd">
<svg version="1.0" xmlns="http://www.w3.org/2000/svg"
 width="512.000000pt" height="512.000000pt" viewBox="0 0 512.000000 512.000000"
 preserveAspectRatio="xMidYMid meet">
<metadata>
Created by potrace 1.11, written by Peter Selinger 2001-2013
</metadata>
<g transform="translate(0.000000,512.000000) scale(0.100000,-0.100000)"
fill="#000000" stroke="none">
<path d="M1627 5065 c-116 -32 -226 -114 -281 -207 -65 -111 -93 -246 -95
-454 l-2 -131 88 -12 c48 -7 99 -14 113 -17 14 -2 90 -13 170 -24 80 -11 157
-23 171 -25 15 -3 47 -7 70 -10 24 -3 55 -7 69 -10 14 -2 45 -7 70 -10 25 -3
52 -8 60 -10 16 -5 130 -17 169 -19 22 -1 24 3 27 59 8 180 15 252 40 395 19
113 19 116 39 183 25 88 63 175 101 235 19 30 34 56 32 57 -2 2 -181 6 -398 9
-315 4 -405 2 -443 -9z"/>
<path d="M2805 5052 c-65 -12 -99 -26 -131 -54 -98 -86 -162 -245 -198 -495
-23 -155 -28 -237 -36 -559 0 -6 -26 -21 -57 -34 -234 -95 -570 -261 -753
-370 -351 -211 -533 -402 -525 -551 5 -81 54 -147 168 -222 125 -83 395 -180
587 -212 19 -3 58 -10 85 -15 54 -11 96 -18 107 -19 8 -1 3 -17 -23 -76 -9
-22 -67 -157 -128 -300 -61 -143 -116 -269 -121 -280 -9 -20 -100 -231 -330
-765 -65 -151 -153 -354 -194 -450 -41 -95 -74 -176 -71 -178 2 -2 192 47 422
108 230 61 425 113 433 115 74 18 398 107 408 113 11 6 56 99 174 362 11 25
32 70 45 100 14 30 47 102 73 160 26 58 60 132 75 165 15 33 38 83 50 110 12
28 35 77 50 110 15 33 41 89 57 124 16 36 32 60 37 55 8 -9 153 -252 160 -268
2 -5 48 -82 101 -171 53 -89 99 -166 101 -171 21 -48 176 -294 187 -294 7 0
34 7 60 14 26 8 106 31 177 50 72 19 306 83 520 142 215 59 400 109 413 111
23 6 29 22 13 38 -5 6 -51 80 -103 165 -52 85 -177 290 -278 455 -101 165
-231 379 -290 475 -58 96 -123 201 -143 233 -20 31 -37 59 -37 62 0 2 -13 24
-29 47 -16 24 -27 46 -23 49 4 4 50 21 102 39 181 63 397 167 521 251 136 92
234 209 245 292 14 102 -95 218 -299 319 -199 99 -528 203 -859 274 -73 15
-78 18 -79 43 0 25 -4 58 -14 133 -13 103 -68 274 -126 391 -119 240 -272 370
-446 380 -32 2 -67 1 -78 -1z"/>
<path d="M930 4068 c-47 -28 -122 -72 -167 -98 -350 -203 -556 -358 -618 -464
-38 -65 -49 -161 -31 -268 24 -151 172 -280 421 -368 92 -33 134 -45 362 -105
72 -19 139 -38 148 -42 10 -3 -7 19 -38 50 -69 71 -99 143 -96 232 11 284 313
561 961 882 81 40 153 73 160 73 7 0 8 3 3 9 -6 5 -46 15 -91 21 -44 6 -89 12
-100 14 -17 3 -88 14 -149 22 -11 1 -101 14 -200 29 -247 36 -242 35 -312 46
-156 24 -160 23 -253 -33z"/>
<path d="M637 2568 c-8 -18 -40 -93 -72 -167 -53 -125 -134 -332 -175 -446
-56 -160 -206 -572 -255 -700 -32 -82 -68 -178 -81 -213 -13 -34 -26 -67 -29
-72 -3 -5 18 -21 47 -34 42 -19 857 -419 879 -432 8 -4 249 481 249 501 0 4 9
25 19 49 25 53 286 658 388 896 41 96 87 203 104 238 48 104 48 109 -3 122
-93 25 -935 260 -963 269 -82 26 -93 25 -108 -11z"/>
<path d="M2942 1408 c-45 -99 -81 -183 -79 -185 5 -4 451 -132 453 -130 2 2
-283 488 -290 494 -1 1 -39 -79 -84 -179z"/>
</g>
</svg>
